<mxfile host="Electron" modified="2024-08-05T14:20:49.892Z" agent="Mozilla/5.0 (X11; Linux x86_64) AppleWebKit/537.36 (KHTML, like Gecko) draw.io/24.6.4 Chrome/124.0.6367.207 Electron/30.0.6 Safari/537.36" etag="-_-ShUzh__Sl1tfygCne" version="24.6.4" type="device">
  <diagram name="Page-1" id="wSb3pIXxHaZCQYWZxsak">
    <mxGraphModel dx="908" dy="626" grid="1" gridSize="10" guides="1" tooltips="1" connect="1" arrows="1" fold="1" page="1" pageScale="1" pageWidth="827" pageHeight="1169" math="0" shadow="0">
      <root>
        <mxCell id="0" />
        <mxCell id="1" parent="0" />
        <mxCell id="gHkvKvIm3D_nOaMs9rWN-1" value="Inicio&lt;div&gt;&quot;0&quot;&lt;/div&gt;" style="ellipse;whiteSpace=wrap;html=1;" parent="1" vertex="1">
          <mxGeometry x="342.5" y="50" width="120" height="60" as="geometry" />
        </mxCell>
        <mxCell id="gHkvKvIm3D_nOaMs9rWN-5" style="edgeStyle=orthogonalEdgeStyle;rounded=0;orthogonalLoop=1;jettySize=auto;html=1;entryX=0.5;entryY=0;entryDx=0;entryDy=0;exitX=0.5;exitY=1;exitDx=0;exitDy=0;" parent="1" source="D1iu8mPuPwEkOPNxLqE6-5" target="gHkvKvIm3D_nOaMs9rWN-4" edge="1">
          <mxGeometry relative="1" as="geometry">
            <mxPoint x="400" y="360" as="sourcePoint" />
          </mxGeometry>
        </mxCell>
        <mxCell id="gHkvKvIm3D_nOaMs9rWN-6" value="&quot;SI&quot; AEcribirTMax" style="edgeLabel;html=1;align=center;verticalAlign=middle;resizable=0;points=[];" parent="gHkvKvIm3D_nOaMs9rWN-5" vertex="1" connectable="0">
          <mxGeometry x="0.1077" y="3" relative="1" as="geometry">
            <mxPoint x="-8" y="-2" as="offset" />
          </mxGeometry>
        </mxCell>
        <mxCell id="gHkvKvIm3D_nOaMs9rWN-31" style="edgeStyle=orthogonalEdgeStyle;rounded=0;orthogonalLoop=1;jettySize=auto;html=1;entryX=0.45;entryY=-0.043;entryDx=0;entryDy=0;entryPerimeter=0;exitX=0.5;exitY=1;exitDx=0;exitDy=0;" parent="1" source="D1iu8mPuPwEkOPNxLqE6-7" target="gHkvKvIm3D_nOaMs9rWN-29" edge="1">
          <mxGeometry relative="1" as="geometry">
            <mxPoint x="500" y="279.5" as="targetPoint" />
            <mxPoint x="400" y="660" as="sourcePoint" />
          </mxGeometry>
        </mxCell>
        <mxCell id="gHkvKvIm3D_nOaMs9rWN-32" value="&quot;SI&quot; AEscribirHMax" style="edgeLabel;html=1;align=center;verticalAlign=middle;resizable=0;points=[];" parent="gHkvKvIm3D_nOaMs9rWN-31" vertex="1" connectable="0">
          <mxGeometry x="0.585" relative="1" as="geometry">
            <mxPoint x="7" y="-15" as="offset" />
          </mxGeometry>
        </mxCell>
        <mxCell id="gHkvKvIm3D_nOaMs9rWN-8" style="edgeStyle=orthogonalEdgeStyle;rounded=0;orthogonalLoop=1;jettySize=auto;html=1;exitX=0.5;exitY=1;exitDx=0;exitDy=0;entryX=0.5;entryY=0;entryDx=0;entryDy=0;" parent="1" source="gHkvKvIm3D_nOaMs9rWN-4" target="gHkvKvIm3D_nOaMs9rWN-7" edge="1">
          <mxGeometry relative="1" as="geometry" />
        </mxCell>
        <mxCell id="gHkvKvIm3D_nOaMs9rWN-9" value="&quot;DATO&quot;&amp;nbsp;&lt;div&gt;AEscribirTMin&lt;/div&gt;" style="edgeLabel;html=1;align=center;verticalAlign=middle;resizable=0;points=[];" parent="gHkvKvIm3D_nOaMs9rWN-8" vertex="1" connectable="0">
          <mxGeometry y="2" relative="1" as="geometry">
            <mxPoint as="offset" />
          </mxGeometry>
        </mxCell>
        <mxCell id="gHkvKvIm3D_nOaMs9rWN-24" style="edgeStyle=orthogonalEdgeStyle;rounded=0;orthogonalLoop=1;jettySize=auto;html=1;exitX=1;exitY=0.5;exitDx=0;exitDy=0;entryX=0.75;entryY=1;entryDx=0;entryDy=0;" parent="1" target="3OKYl5-qhpJkKLRwrcnB-1" edge="1">
          <mxGeometry relative="1" as="geometry">
            <mxPoint x="622.5" y="230" as="targetPoint" />
            <Array as="points">
              <mxPoint x="623" y="425" />
              <mxPoint x="623" y="250" />
              <mxPoint x="633" y="250" />
            </Array>
            <mxPoint x="467.5" y="425" as="sourcePoint" />
          </mxGeometry>
        </mxCell>
        <mxCell id="gHkvKvIm3D_nOaMs9rWN-25" value="&quot;Tout&quot;&amp;nbsp;&lt;div&gt;ATimeOut&lt;/div&gt;" style="edgeLabel;html=1;align=center;verticalAlign=middle;resizable=0;points=[];" parent="gHkvKvIm3D_nOaMs9rWN-24" vertex="1" connectable="0">
          <mxGeometry x="0.0214" y="-1" relative="1" as="geometry">
            <mxPoint x="-4" y="-11" as="offset" />
          </mxGeometry>
        </mxCell>
        <mxCell id="gHkvKvIm3D_nOaMs9rWN-4" value="Escribir_Temp_Max&lt;div&gt;&quot;2&quot;&lt;/div&gt;" style="ellipse;whiteSpace=wrap;html=1;" parent="1" vertex="1">
          <mxGeometry x="325" y="400" width="140" height="50" as="geometry" />
        </mxCell>
        <mxCell id="gHkvKvIm3D_nOaMs9rWN-22" style="edgeStyle=orthogonalEdgeStyle;rounded=0;orthogonalLoop=1;jettySize=auto;html=1;exitX=1;exitY=0.5;exitDx=0;exitDy=0;entryX=0.401;entryY=1.008;entryDx=0;entryDy=0;entryPerimeter=0;" parent="1" source="gHkvKvIm3D_nOaMs9rWN-7" target="3OKYl5-qhpJkKLRwrcnB-1" edge="1">
          <mxGeometry relative="1" as="geometry">
            <mxPoint x="334.0000000000002" y="535" as="sourcePoint" />
            <mxPoint x="590" y="250" as="targetPoint" />
            <Array as="points">
              <mxPoint x="590" y="550" />
              <mxPoint x="590" y="300" />
              <mxPoint x="594" y="300" />
            </Array>
          </mxGeometry>
        </mxCell>
        <mxCell id="gHkvKvIm3D_nOaMs9rWN-23" value="&quot;Tout&quot;&amp;nbsp;&lt;div&gt;ATimeOut&lt;/div&gt;" style="edgeLabel;html=1;align=center;verticalAlign=middle;resizable=0;points=[];" parent="gHkvKvIm3D_nOaMs9rWN-22" vertex="1" connectable="0">
          <mxGeometry x="-0.0322" y="-2" relative="1" as="geometry">
            <mxPoint y="21" as="offset" />
          </mxGeometry>
        </mxCell>
        <mxCell id="gHkvKvIm3D_nOaMs9rWN-7" value="Escribir_Temp_Min&lt;div&gt;&quot;3&quot;&lt;/div&gt;" style="ellipse;whiteSpace=wrap;html=1;" parent="1" vertex="1">
          <mxGeometry x="317.5" y="530" width="140" height="40" as="geometry" />
        </mxCell>
        <mxCell id="gHkvKvIm3D_nOaMs9rWN-13" style="edgeStyle=orthogonalEdgeStyle;rounded=0;orthogonalLoop=1;jettySize=auto;html=1;exitX=0.5;exitY=1;exitDx=0;exitDy=0;entryX=0.494;entryY=-0.057;entryDx=0;entryDy=0;entryPerimeter=0;" parent="1" source="gHkvKvIm3D_nOaMs9rWN-10" target="gHkvKvIm3D_nOaMs9rWN-15" edge="1">
          <mxGeometry relative="1" as="geometry">
            <mxPoint x="389" y="860" as="targetPoint" />
          </mxGeometry>
        </mxCell>
        <mxCell id="gHkvKvIm3D_nOaMs9rWN-14" value="&quot;PulsadorTrue&quot; AGuardaValores" style="edgeLabel;html=1;align=center;verticalAlign=middle;resizable=0;points=[];" parent="gHkvKvIm3D_nOaMs9rWN-13" vertex="1" connectable="0">
          <mxGeometry x="-0.2432" y="-1" relative="1" as="geometry">
            <mxPoint x="10" y="1" as="offset" />
          </mxGeometry>
        </mxCell>
        <mxCell id="gHkvKvIm3D_nOaMs9rWN-19" style="edgeStyle=orthogonalEdgeStyle;rounded=0;orthogonalLoop=1;jettySize=auto;html=1;exitX=0;exitY=0.5;exitDx=0;exitDy=0;entryX=0;entryY=0.75;entryDx=0;entryDy=0;" parent="1" edge="1">
          <mxGeometry relative="1" as="geometry">
            <mxPoint x="550" y="190" as="targetPoint" />
            <Array as="points">
              <mxPoint x="74" y="1007.5" />
              <mxPoint x="74" y="190.5" />
              <mxPoint x="340" y="190.5" />
            </Array>
            <mxPoint x="320" y="1007.5" as="sourcePoint" />
          </mxGeometry>
        </mxCell>
        <mxCell id="gHkvKvIm3D_nOaMs9rWN-20" value="&quot;Tout&quot;&amp;nbsp;&lt;div&gt;ATimeOut&lt;/div&gt;" style="edgeLabel;html=1;align=center;verticalAlign=middle;resizable=0;points=[];" parent="gHkvKvIm3D_nOaMs9rWN-19" vertex="1" connectable="0">
          <mxGeometry x="-0.2073" y="-1" relative="1" as="geometry">
            <mxPoint x="-11" as="offset" />
          </mxGeometry>
        </mxCell>
        <mxCell id="gHkvKvIm3D_nOaMs9rWN-10" value="Confirmar_Con_Pulsador&lt;div&gt;&quot;7&quot;&lt;/div&gt;" style="ellipse;whiteSpace=wrap;html=1;" parent="1" vertex="1">
          <mxGeometry x="320" y="1000" width="170" height="50" as="geometry" />
        </mxCell>
        <mxCell id="D1iu8mPuPwEkOPNxLqE6-1" style="edgeStyle=orthogonalEdgeStyle;rounded=0;orthogonalLoop=1;jettySize=auto;html=1;exitX=1;exitY=0.5;exitDx=0;exitDy=0;entryX=0.978;entryY=0.309;entryDx=0;entryDy=0;entryPerimeter=0;" parent="1" source="gHkvKvIm3D_nOaMs9rWN-15" target="gHkvKvIm3D_nOaMs9rWN-1" edge="1">
          <mxGeometry relative="1" as="geometry">
            <mxPoint x="680" y="90" as="targetPoint" />
            <Array as="points">
              <mxPoint x="750" y="1125" />
              <mxPoint x="750" y="68" />
            </Array>
          </mxGeometry>
        </mxCell>
        <mxCell id="D1iu8mPuPwEkOPNxLqE6-2" value="&quot;DATO&quot; AInicio" style="edgeLabel;html=1;align=center;verticalAlign=middle;resizable=0;points=[];" parent="D1iu8mPuPwEkOPNxLqE6-1" vertex="1" connectable="0">
          <mxGeometry x="0.9637" y="-1" relative="1" as="geometry">
            <mxPoint x="250" y="902" as="offset" />
          </mxGeometry>
        </mxCell>
        <mxCell id="gHkvKvIm3D_nOaMs9rWN-15" value="Valores_Guardados&lt;div&gt;&quot;8&quot;&lt;/div&gt;" style="html=1;whiteSpace=wrap;" parent="1" vertex="1">
          <mxGeometry x="350" y="1100" width="110" height="50" as="geometry" />
        </mxCell>
        <mxCell id="gHkvKvIm3D_nOaMs9rWN-33" style="edgeStyle=orthogonalEdgeStyle;rounded=0;orthogonalLoop=1;jettySize=auto;html=1;exitX=0.5;exitY=1;exitDx=0;exitDy=0;entryX=0.5;entryY=0;entryDx=0;entryDy=0;" parent="1" source="gHkvKvIm3D_nOaMs9rWN-29" target="gHkvKvIm3D_nOaMs9rWN-30" edge="1">
          <mxGeometry relative="1" as="geometry">
            <mxPoint x="510" y="690" as="targetPoint" />
          </mxGeometry>
        </mxCell>
        <mxCell id="gHkvKvIm3D_nOaMs9rWN-34" value="&quot;DATO&quot; AEscribirHMin" style="edgeLabel;html=1;align=center;verticalAlign=middle;resizable=0;points=[];" parent="gHkvKvIm3D_nOaMs9rWN-33" vertex="1" connectable="0">
          <mxGeometry x="-0.2048" relative="1" as="geometry">
            <mxPoint x="5" y="6" as="offset" />
          </mxGeometry>
        </mxCell>
        <mxCell id="gHkvKvIm3D_nOaMs9rWN-29" value="Escribir_Hum_Max&lt;div&gt;&quot;5&quot;&lt;/div&gt;" style="ellipse;whiteSpace=wrap;html=1;" parent="1" vertex="1">
          <mxGeometry x="320" y="810" width="160" height="50" as="geometry" />
        </mxCell>
        <mxCell id="gHkvKvIm3D_nOaMs9rWN-37" style="edgeStyle=orthogonalEdgeStyle;rounded=0;orthogonalLoop=1;jettySize=auto;html=1;exitX=0.5;exitY=1;exitDx=0;exitDy=0;" parent="1" source="gHkvKvIm3D_nOaMs9rWN-30" target="gHkvKvIm3D_nOaMs9rWN-10" edge="1">
          <mxGeometry relative="1" as="geometry" />
        </mxCell>
        <mxCell id="gHkvKvIm3D_nOaMs9rWN-38" value="&quot;DATO&quot; AConfirmarConPul" style="edgeLabel;html=1;align=center;verticalAlign=middle;resizable=0;points=[];" parent="gHkvKvIm3D_nOaMs9rWN-37" vertex="1" connectable="0">
          <mxGeometry x="-0.7636" y="1" relative="1" as="geometry">
            <mxPoint x="-1" y="12" as="offset" />
          </mxGeometry>
        </mxCell>
        <mxCell id="gHkvKvIm3D_nOaMs9rWN-39" style="edgeStyle=orthogonalEdgeStyle;rounded=0;orthogonalLoop=1;jettySize=auto;html=1;exitX=1;exitY=0.5;exitDx=0;exitDy=0;entryX=1;entryY=0.25;entryDx=0;entryDy=0;" parent="1" source="gHkvKvIm3D_nOaMs9rWN-30" target="3OKYl5-qhpJkKLRwrcnB-1" edge="1">
          <mxGeometry relative="1" as="geometry">
            <mxPoint x="530" y="520" as="targetPoint" />
            <Array as="points">
              <mxPoint x="690" y="925" />
              <mxPoint x="690" y="183" />
              <mxPoint x="670" y="183" />
            </Array>
          </mxGeometry>
        </mxCell>
        <mxCell id="gHkvKvIm3D_nOaMs9rWN-42" value="&quot;Tout&quot;&amp;nbsp;&lt;div&gt;ATimeOut&lt;/div&gt;" style="edgeLabel;html=1;align=center;verticalAlign=middle;resizable=0;points=[];" parent="gHkvKvIm3D_nOaMs9rWN-39" vertex="1" connectable="0">
          <mxGeometry x="0.0045" relative="1" as="geometry">
            <mxPoint as="offset" />
          </mxGeometry>
        </mxCell>
        <mxCell id="gHkvKvIm3D_nOaMs9rWN-30" value="Escribir_Hum_Min&lt;div&gt;&quot;6&quot;&lt;/div&gt;" style="ellipse;whiteSpace=wrap;html=1;" parent="1" vertex="1">
          <mxGeometry x="322.5" y="900" width="155" height="50" as="geometry" />
        </mxCell>
        <mxCell id="gHkvKvIm3D_nOaMs9rWN-40" style="edgeStyle=orthogonalEdgeStyle;rounded=0;orthogonalLoop=1;jettySize=auto;html=1;exitX=1;exitY=0.5;exitDx=0;exitDy=0;entryX=1;entryY=0.75;entryDx=0;entryDy=0;" parent="1" source="gHkvKvIm3D_nOaMs9rWN-29" target="3OKYl5-qhpJkKLRwrcnB-1" edge="1">
          <mxGeometry relative="1" as="geometry">
            <Array as="points">
              <mxPoint x="650" y="835" />
              <mxPoint x="650" y="240" />
              <mxPoint x="680" y="240" />
              <mxPoint x="680" y="208" />
            </Array>
            <mxPoint x="480" y="150" as="targetPoint" />
          </mxGeometry>
        </mxCell>
        <mxCell id="gHkvKvIm3D_nOaMs9rWN-41" value="&quot;Tout&quot;&amp;nbsp;&lt;div&gt;ATimeOut&lt;/div&gt;" style="edgeLabel;html=1;align=center;verticalAlign=middle;resizable=0;points=[];" parent="gHkvKvIm3D_nOaMs9rWN-40" vertex="1" connectable="0">
          <mxGeometry x="-0.0509" y="-1" relative="1" as="geometry">
            <mxPoint as="offset" />
          </mxGeometry>
        </mxCell>
        <mxCell id="D1iu8mPuPwEkOPNxLqE6-16" style="edgeStyle=orthogonalEdgeStyle;rounded=0;orthogonalLoop=1;jettySize=auto;html=1;exitX=0.5;exitY=1;exitDx=0;exitDy=0;entryX=0.5;entryY=0;entryDx=0;entryDy=0;" parent="1" source="gHkvKvIm3D_nOaMs9rWN-1" target="D1iu8mPuPwEkOPNxLqE6-5" edge="1">
          <mxGeometry relative="1" as="geometry">
            <mxPoint x="402.5" y="270" as="sourcePoint" />
            <Array as="points">
              <mxPoint x="403" y="180" />
              <mxPoint x="397" y="180" />
            </Array>
          </mxGeometry>
        </mxCell>
        <mxCell id="D1iu8mPuPwEkOPNxLqE6-17" value="&quot;Set_Temp&quot; AAlarma_Por_Temp" style="edgeLabel;html=1;align=center;verticalAlign=middle;resizable=0;points=[];" parent="D1iu8mPuPwEkOPNxLqE6-16" vertex="1" connectable="0">
          <mxGeometry x="0.0857" y="2" relative="1" as="geometry">
            <mxPoint x="3" y="-40" as="offset" />
          </mxGeometry>
        </mxCell>
        <mxCell id="D1iu8mPuPwEkOPNxLqE6-18" style="edgeStyle=orthogonalEdgeStyle;rounded=0;orthogonalLoop=1;jettySize=auto;html=1;exitX=1;exitY=0.5;exitDx=0;exitDy=0;entryX=1;entryY=0.5;entryDx=0;entryDy=0;" parent="1" source="D1iu8mPuPwEkOPNxLqE6-5" target="D1iu8mPuPwEkOPNxLqE6-7" edge="1">
          <mxGeometry relative="1" as="geometry">
            <mxPoint x="470" y="640" as="targetPoint" />
            <Array as="points">
              <mxPoint x="510" y="300" />
              <mxPoint x="510" y="740" />
            </Array>
          </mxGeometry>
        </mxCell>
        <mxCell id="D1iu8mPuPwEkOPNxLqE6-19" value="&quot;NO&quot;&amp;nbsp;&lt;div&gt;AAlarmaPorHum&lt;/div&gt;" style="edgeLabel;html=1;align=center;verticalAlign=middle;resizable=0;points=[];" parent="D1iu8mPuPwEkOPNxLqE6-18" vertex="1" connectable="0">
          <mxGeometry x="0.0448" y="-1" relative="1" as="geometry">
            <mxPoint x="1" y="-173" as="offset" />
          </mxGeometry>
        </mxCell>
        <mxCell id="D1iu8mPuPwEkOPNxLqE6-5" value="Alarma_Por_Temp&lt;div&gt;&quot;1&quot;&lt;/div&gt;" style="ellipse;whiteSpace=wrap;html=1;" parent="1" vertex="1">
          <mxGeometry x="327.5" y="280" width="140" height="40" as="geometry" />
        </mxCell>
        <mxCell id="D1iu8mPuPwEkOPNxLqE6-14" style="edgeStyle=orthogonalEdgeStyle;rounded=0;orthogonalLoop=1;jettySize=auto;html=1;exitX=0;exitY=0.5;exitDx=0;exitDy=0;entryX=0.036;entryY=0.278;entryDx=0;entryDy=0;entryPerimeter=0;" parent="1" source="D1iu8mPuPwEkOPNxLqE6-7" target="gHkvKvIm3D_nOaMs9rWN-10" edge="1">
          <mxGeometry relative="1" as="geometry">
            <mxPoint x="317.41176470588243" y="980" as="targetPoint" />
            <Array as="points">
              <mxPoint x="260" y="740" />
              <mxPoint x="260" y="1014" />
            </Array>
          </mxGeometry>
        </mxCell>
        <mxCell id="D1iu8mPuPwEkOPNxLqE6-15" value="&quot;NO&quot; AConfirmarConPul" style="edgeLabel;html=1;align=center;verticalAlign=middle;resizable=0;points=[];" parent="D1iu8mPuPwEkOPNxLqE6-14" vertex="1" connectable="0">
          <mxGeometry x="-0.0207" relative="1" as="geometry">
            <mxPoint x="-20" y="9" as="offset" />
          </mxGeometry>
        </mxCell>
        <mxCell id="D1iu8mPuPwEkOPNxLqE6-7" value="Alarma_Por_Hum&lt;div&gt;&quot;4&quot;&lt;/div&gt;" style="ellipse;whiteSpace=wrap;html=1;" parent="1" vertex="1">
          <mxGeometry x="317.5" y="720" width="147.5" height="40" as="geometry" />
        </mxCell>
        <mxCell id="D1iu8mPuPwEkOPNxLqE6-12" style="edgeStyle=orthogonalEdgeStyle;rounded=0;orthogonalLoop=1;jettySize=auto;html=1;entryX=0.477;entryY=0.01;entryDx=0;entryDy=0;entryPerimeter=0;exitX=0.5;exitY=1;exitDx=0;exitDy=0;" parent="1" source="gHkvKvIm3D_nOaMs9rWN-7" target="D1iu8mPuPwEkOPNxLqE6-7" edge="1">
          <mxGeometry relative="1" as="geometry">
            <mxPoint x="388" y="640" as="sourcePoint" />
          </mxGeometry>
        </mxCell>
        <mxCell id="D1iu8mPuPwEkOPNxLqE6-13" value="&quot;DATO&quot; AAlarma_Por_Hum" style="edgeLabel;html=1;align=center;verticalAlign=middle;resizable=0;points=[];" parent="D1iu8mPuPwEkOPNxLqE6-12" vertex="1" connectable="0">
          <mxGeometry x="-0.2105" y="1" relative="1" as="geometry">
            <mxPoint x="-2" y="8" as="offset" />
          </mxGeometry>
        </mxCell>
        <mxCell id="3OKYl5-qhpJkKLRwrcnB-1" value="Time_Out&lt;div&gt;&quot;9&quot;&lt;/div&gt;" style="html=1;whiteSpace=wrap;" parent="1" vertex="1">
          <mxGeometry x="550" y="170" width="110" height="50" as="geometry" />
        </mxCell>
        <mxCell id="3OKYl5-qhpJkKLRwrcnB-2" value="" style="endArrow=classic;html=1;rounded=0;exitX=0.5;exitY=0;exitDx=0;exitDy=0;entryX=1;entryY=1;entryDx=0;entryDy=0;" parent="1" source="3OKYl5-qhpJkKLRwrcnB-1" target="gHkvKvIm3D_nOaMs9rWN-1" edge="1">
          <mxGeometry width="50" height="50" relative="1" as="geometry">
            <mxPoint x="530" y="140" as="sourcePoint" />
            <mxPoint x="580" y="90" as="targetPoint" />
            <Array as="points">
              <mxPoint x="605" y="101" />
            </Array>
          </mxGeometry>
        </mxCell>
        <mxCell id="uhrcRO7OGMkm9y_8tRiy-3" value="" style="edgeStyle=elbowEdgeStyle;elbow=vertical;endArrow=classic;html=1;curved=0;rounded=0;endSize=8;startSize=8;entryX=0.146;entryY=0.989;entryDx=0;entryDy=0;entryPerimeter=0;exitX=1;exitY=0;exitDx=0;exitDy=0;" edge="1" parent="1" source="D1iu8mPuPwEkOPNxLqE6-5" target="3OKYl5-qhpJkKLRwrcnB-1">
          <mxGeometry width="50" height="50" relative="1" as="geometry">
            <mxPoint x="520" y="280" as="sourcePoint" />
            <mxPoint x="570" y="230" as="targetPoint" />
          </mxGeometry>
        </mxCell>
        <mxCell id="uhrcRO7OGMkm9y_8tRiy-7" value="&quot;Tout&quot;&lt;div&gt;ATimeOut&lt;/div&gt;" style="edgeLabel;html=1;align=center;verticalAlign=middle;resizable=0;points=[];" vertex="1" connectable="0" parent="uhrcRO7OGMkm9y_8tRiy-3">
          <mxGeometry x="0.1338" relative="1" as="geometry">
            <mxPoint as="offset" />
          </mxGeometry>
        </mxCell>
        <mxCell id="uhrcRO7OGMkm9y_8tRiy-4" value="" style="edgeStyle=elbowEdgeStyle;elbow=vertical;endArrow=classic;html=1;curved=0;rounded=0;endSize=8;startSize=8;exitX=0;exitY=0;exitDx=0;exitDy=0;entryX=0;entryY=0.75;entryDx=0;entryDy=0;" edge="1" parent="1" source="D1iu8mPuPwEkOPNxLqE6-7" target="3OKYl5-qhpJkKLRwrcnB-1">
          <mxGeometry width="50" height="50" relative="1" as="geometry">
            <mxPoint x="327.49881477710846" y="725.817858575575" as="sourcePoint" />
            <mxPoint x="230" y="210" as="targetPoint" />
            <Array as="points">
              <mxPoint x="250" y="460" />
            </Array>
          </mxGeometry>
        </mxCell>
        <mxCell id="uhrcRO7OGMkm9y_8tRiy-5" value="&quot;Tout&quot;&lt;div&gt;ATimeOut&lt;/div&gt;" style="edgeLabel;html=1;align=center;verticalAlign=middle;resizable=0;points=[];" vertex="1" connectable="0" parent="uhrcRO7OGMkm9y_8tRiy-4">
          <mxGeometry x="0.4027" relative="1" as="geometry">
            <mxPoint x="-29" y="378" as="offset" />
          </mxGeometry>
        </mxCell>
      </root>
    </mxGraphModel>
  </diagram>
</mxfile>
